<?xml version="1.0"?><svg id="Layer_1" data-name="Layer 1" xmlns="http://www.w3.org/2000/svg" xmlns:xlink="http://www.w3.org/1999/xlink" viewBox="738 492 448 100" xmlns:c2pa="http://c2pa.org/manifest"><metadata><c2pa:manifest>AAAWgmp1bWIAAAAeanVtZGMycGEAEQAQgAAAqgA4m3EDYzJwYQAAABZcanVtYgAAAEdqdW1kYzJtYQARABCAAACqADibcQN1cm46YzJwYTo0NTYxZDJjNy04MmJmLTQxNjgtOWJjNS02MmIwZjk1ZjZmYTkAAAADl2p1bWIAAAApanVtZGMyYXMAEQAQgAAAqgA4m3EDYzJwYS5hc3NlcnRpb25zAAAAALxqdW1iAAAARGp1bWRjYm9yABEAEIAAAKoAOJtxE2MycGEuaW5ncmVkaWVudC52MwAAAAAYYzJzaLTIDSdgA3UJFbc0JOinOXIAAABwY2JvcqNpZGM6Zm9ybWF0bWltYWdlL3N2Zyt4bWxqaW5zdGFuY2VJRHgseG1wOmlpZDo0M2Y5MjNiZC04MjMxLTRiM2UtYmEyMi0wZDliZjllZTllMDRscmVsYXRpb25zaGlwaHBhcmVudE9mAAAB4mp1bWIAAABBanVtZGNib3IAEQAQgAAAqgA4m3ETYzJwYS5hY3Rpb25zLnYyAAAAABhjMnNoC+LkMnaKgP4lKyh0nnBGHQAAAZljYm9yomdhY3Rpb25zgqJmYWN0aW9ua2MycGEub3BlbmVkanBhcmFtZXRlcnOha2luZ3JlZGllbnRzgaJjdXJseC1zZWxmI2p1bWJmPWMycGEuYXNzZXJ0aW9ucy9jMnBhLmluZ3JlZGllbnQudjNkaGFzaFggFizhAkkEa+4s5iAuj4CNFq6rkzMC8OjKifNwHG2QZ3KkZmFjdGlvbngdY29tLmFudGhyb3BpYy5jbGF1ZGUucHJvdmlkZWRqcGFyYW1ldGVyc6F4H2NvbS5hbnRocm9waWMub3JpZ2luLWNvbmZpZGVuY2VndW5rbm93bmtkZXNjcmlwdGlvbnhmQ2xhdWRlIHByb3ZpZGVkIHRoaXMgZmlsZSBhdCB0aGUgcmVxdWVzdCBvZiBhIHVzZXIgYW5kIG1heSBoYXZlIGNyZWF0ZWQgb3IgbW9kaWZpZWQgdGhlIGZpbGUgY29udGVudHMubXNvZnR3YXJlQWdlbnShZG5hbWVmQ2xhdWRlcmFsbEFjdGlvbnNJbmNsdWRlZPUAAADIanVtYgAAAEBqdW1kY2JvcgARABCAAACqADibcRNjMnBhLmhhc2guZGF0YQAAAAAYYzJzaJxDeg5zk+5jtiZ1KhjghBEAAACAY2JvcqVjYWxnZnNoYTI1NmNwYWRNAAAAAAAAAAAAAAAAAGRoYXNoWCAUY5xC4y4bkY+wvTtVeRQkoaoStEXRxhYV8QUaZHVMyGRuYW1lbmp1bWJmIG1hbmlmZXN0amV4Y2x1c2lvbnOBomVzdGFydBjiZmxlbmd0aBkeBAAAAj5qdW1iAAAAJ2p1bWRjMmNsABEAEIAAAKoAOJtxA2MycGEuY2xhaW0udjIAAAACD2Nib3KlY2FsZ2ZzaGEyNTZpc2lnbmF0dXJleE1zZWxmI2p1bWJmPS9jMnBhL3VybjpjMnBhOjQ1NjFkMmM3LTgyYmYtNDE2OC05YmM1LTYyYjBmOTVmNmZhOS9jMnBhLnNpZ25hdHVyZWppbnN0YW5jZUlEeCx4bXA6aWlkOjE5OWJmZjljLWM2OTQtNDVmZS1hNjczLWMxMDk5NjFjNGJlMXJjcmVhdGVkX2Fzc2VydGlvbnODomN1cmx4LXNlbGYjanVtYmY9YzJwYS5hc3NlcnRpb25zL2MycGEuaW5ncmVkaWVudC52M2RoYXNoWCAWLOECSQRr7izmIC6PgI0WrquTMwLw6MqJ83AcbZBncqJjdXJseCpzZWxmI2p1bWJmPWMycGEuYXNzZXJ0aW9ucy9jMnBhLmFjdGlvbnMudjJkaGFzaFggB/KFFhVdpGxgD9udd93+fE1ueOmBQlwnf0qlqMbaJqGiY3VybHgpc2VsZiNqdW1iZj1jMnBhLmFzc2VydGlvbnMvYzJwYS5oYXNoLmRhdGFkaGFzaFggy62qOsQuC5qlzGQES5hCEyprQdOT5HPAAoPhR5krm4p0Y2xhaW1fZ2VuZXJhdG9yX2luZm+jZG5hbWVvQW50aHJvcGljIEZpbGVzZ3ZlcnNpb25lMS4wLjBrc3BlY1ZlcnNpb25lMi40LjAAABA4anVtYgAAAChqdW1kYzJjcwARABCAAACqADibcQNjMnBhLnNpZ25hdHVyZQAAABAIY2JvctKEWQISogEmGCFZAgowggIGMIIBjaADAgECAhRA5aAK7sI50L64g/oGQgU9Z1UTADAKBggqhkjOPQQDAzBJMRcwFQYDVQQKEw5BbnRocm9waWMsIFBCQzEuMCwGA1UEAxMlQW50aHJvcGljIENvbnRlbnQgQ3JlZGVudGlhbHMgUm9vdCBDQTAeFw0yNjA4MDcxODQzNTZaFw0yODA4MDYxOTQzNTZaMEQxFzAVBgNVBAoTDkFudGhyb3BpYywgUEJDMSkwJwYDVQQDEyBBbnRocm9waWMgQ2xhdWRlIENvbnRlbnQgU2lnbmluZzBZMBMGByqGSM49AgEGCCqGSM49AwEHA0IABJh6CmvLUBgFFNU0vUKlOVtE6djd17L5SuwX0LemFisBM3dkd/3cyjxFA3Qo5S46fX0/ihY0VZ7mfb9KF703t5OjWDBWMA4GA1UdDwEB/wQEAwIHgDAVBgNVHSUEDjAMBgorBgEEAYPoXgIBMAwGA1UdEwEB/wQCMAAwHwYDVR0jBBgwFoAUzlHiBIFOZFsj+OPEz5o+nMHXXMIwCgYIKoZIzj0EAwMDZwAwZAIwMXMdFJ4BetLLVY7ORuE9noqbbAZOZn/aArXyTwFAZfKrPzxF2vPoJNf1+UCdg1XGAjBwX1zd9WGqYkqmL5SFqw1QySjr1zJfpJM9+1rdDwSPLMOPOjKuiXjoU/pUUeG9RwmhY3BhZFkNngAAAAAAAAAAAAAAAAAAAAAAAAAAAAAAAAAAAAAAAAAAAAAAAAAAAAAAAAAAAAAAAAAAAAAAAAAAAAAAAAAAAAAAAAAAAAAAAAAAAAAAAAAAAAAAAAAAAAAAAAAAAAAAAAAAAAAAAAAAAAAAAAAAAAAAAAAAAAAAAAAAAAAAAAAAAAAAAAAAAAAAAAAAAAAAAAAAAAAAAAAAAAAAAAAAAAAAAAAAAAAAAAAAAAAAAAAAAAAAAAAAAAAAAAAAAAAAAAAAAAAAAAAAAAAAAAAAAAAAAAAAAAAAAAAAAAAAAAAAAAAAAAAAAAAAAAAAAAAAAAAAAAAAAAAAAAAAAAAAAAAAAAAAAAAAAAAAAAAAAAAAAAAAAAAAAAAAAAAAAAAAAAAAAAAAAAAAAAAAAAAAAAAAAAAAAAAAAAAAAAAAAAAAAAAAAAAAAAAAAAAAAAAAAAAAAAAAAAAAAAAAAAAAAAAAAAAAAAAAAAAAAAAAAAAAAAAAAAAAAAAAAAAAAAAAAAAAAAAAAAAAAAAAAAAAAAAAAAAAAAAAAAAAAAAAAAAAAAAAAAAAAAAAAAAAAAAAAAAAAAAAAAAAAAAAAAAAAAAAAAAAAAAAAAAAAAAAAAAAAAAAAAAAAAAAAAAAAAAAAAAAAAAAAAAAAAAAAAAAAAAAAAAAAAAAAAAAAAAAAAAAAAAAAAAAAAAAAAAAAAAAAAAAAAAAAAAAAAAAAAAAAAAAAAAAAAAAAAAAAAAAAAAAAAAAAAAAAAAAAAAAAAAAAAAAAAAAAAAAAAAAAAAAAAAAAAAAAAAAAAAAAAAAAAAAAAAAAAAAAAAAAAAAAAAAAAAAAAAAAAAAAAAAAAAAAAAAAAAAAAAAAAAAAAAAAAAAAAAAAAAAAAAAAAAAAAAAAAAAAAAAAAAAAAAAAAAAAAAAAAAAAAAAAAAAAAAAAAAAAAAAAAAAAAAAAAAAAAAAAAAAAAAAAAAAAAAAAAAAAAAAAAAAAAAAAAAAAAAAAAAAAAAAAAAAAAAAAAAAAAAAAAAAAAAAAAAAAAAAAAAAAAAAAAAAAAAAAAAAAAAAAAAAAAAAAAAAAAAAAAAAAAAAAAAAAAAAAAAAAAAAAAAAAAAAAAAAAAAAAAAAAAAAAAAAAAAAAAAAAAAAAAAAAAAAAAAAAAAAAAAAAAAAAAAAAAAAAAAAAAAAAAAAAAAAAAAAAAAAAAAAAAAAAAAAAAAAAAAAAAAAAAAAAAAAAAAAAAAAAAAAAAAAAAAAAAAAAAAAAAAAAAAAAAAAAAAAAAAAAAAAAAAAAAAAAAAAAAAAAAAAAAAAAAAAAAAAAAAAAAAAAAAAAAAAAAAAAAAAAAAAAAAAAAAAAAAAAAAAAAAAAAAAAAAAAAAAAAAAAAAAAAAAAAAAAAAAAAAAAAAAAAAAAAAAAAAAAAAAAAAAAAAAAAAAAAAAAAAAAAAAAAAAAAAAAAAAAAAAAAAAAAAAAAAAAAAAAAAAAAAAAAAAAAAAAAAAAAAAAAAAAAAAAAAAAAAAAAAAAAAAAAAAAAAAAAAAAAAAAAAAAAAAAAAAAAAAAAAAAAAAAAAAAAAAAAAAAAAAAAAAAAAAAAAAAAAAAAAAAAAAAAAAAAAAAAAAAAAAAAAAAAAAAAAAAAAAAAAAAAAAAAAAAAAAAAAAAAAAAAAAAAAAAAAAAAAAAAAAAAAAAAAAAAAAAAAAAAAAAAAAAAAAAAAAAAAAAAAAAAAAAAAAAAAAAAAAAAAAAAAAAAAAAAAAAAAAAAAAAAAAAAAAAAAAAAAAAAAAAAAAAAAAAAAAAAAAAAAAAAAAAAAAAAAAAAAAAAAAAAAAAAAAAAAAAAAAAAAAAAAAAAAAAAAAAAAAAAAAAAAAAAAAAAAAAAAAAAAAAAAAAAAAAAAAAAAAAAAAAAAAAAAAAAAAAAAAAAAAAAAAAAAAAAAAAAAAAAAAAAAAAAAAAAAAAAAAAAAAAAAAAAAAAAAAAAAAAAAAAAAAAAAAAAAAAAAAAAAAAAAAAAAAAAAAAAAAAAAAAAAAAAAAAAAAAAAAAAAAAAAAAAAAAAAAAAAAAAAAAAAAAAAAAAAAAAAAAAAAAAAAAAAAAAAAAAAAAAAAAAAAAAAAAAAAAAAAAAAAAAAAAAAAAAAAAAAAAAAAAAAAAAAAAAAAAAAAAAAAAAAAAAAAAAAAAAAAAAAAAAAAAAAAAAAAAAAAAAAAAAAAAAAAAAAAAAAAAAAAAAAAAAAAAAAAAAAAAAAAAAAAAAAAAAAAAAAAAAAAAAAAAAAAAAAAAAAAAAAAAAAAAAAAAAAAAAAAAAAAAAAAAAAAAAAAAAAAAAAAAAAAAAAAAAAAAAAAAAAAAAAAAAAAAAAAAAAAAAAAAAAAAAAAAAAAAAAAAAAAAAAAAAAAAAAAAAAAAAAAAAAAAAAAAAAAAAAAAAAAAAAAAAAAAAAAAAAAAAAAAAAAAAAAAAAAAAAAAAAAAAAAAAAAAAAAAAAAAAAAAAAAAAAAAAAAAAAAAAAAAAAAAAAAAAAAAAAAAAAAAAAAAAAAAAAAAAAAAAAAAAAAAAAAAAAAAAAAAAAAAAAAAAAAAAAAAAAAAAAAAAAAAAAAAAAAAAAAAAAAAAAAAAAAAAAAAAAAAAAAAAAAAAAAAAAAAAAAAAAAAAAAAAAAAAAAAAAAAAAAAAAAAAAAAAAAAAAAAAAAAAAAAAAAAAAAAAAAAAAAAAAAAAAAAAAAAAAAAAAAAAAAAAAAAAAAAAAAAAAAAAAAAAAAAAAAAAAAAAAAAAAAAAAAAAAAAAAAAAAAAAAAAAAAAAAAAAAAAAAAAAAAAAAAAAAAAAAAAAAAAAAAAAAAAAAAAAAAAAAAAAAAAAAAAAAAAAAAAAAAAAAAAAAAAAAAAAAAAAAAAAAAAAAAAAAAAAAAAAAAAAAAAAAAAAAAAAAAAAAAAAAAAAAAAAAAAAAAAAAAAAAAAAAAAAAAAAAAAAAAAAAAAAAAAAAAAAAAAAAAAAAAAAAAAAAAAAAAAAAAAAAAAAAAAAAAAAAAAAAAAAAAAAAAAAAAAAAAAAAAAAAAAAAAAAAAAAAAAAAAAAAAAAAAAAAAAAAAAAAAAAAAAAAAAAAAAAAAAAAAAAAAAAAAAAAAAAAAAAAAAAAAAAAAAAAAAAAAAAAAAAAAAAAAAAAAAAAAAAAAAAAAAAAAAAAAAAAAAAAAAAAAAAAAAAAAAAAAAAAAAAAAAAAAAAAAAAAAAAAAAAAAAAAAAAAAAAAAAAAAAAAAAAAAAAAAAAAAAAAAAAAAAAAAAAAAAAAAAAAAAAAAAAAAAAAAAAAAAAAAAAAAAAAAAAAAAAAAAAAAAAAAAAAAAAAAAAAAAAAAAAAAAAAAAAAAAAAAAAAAAAAAAAAAAAAAAAAAAAAAAAAAAAAAAAAAAAAAAAAAAAAAAAAAAAAAAAAAAAAAAAAAAAAAAAAAAAAAAAAAAAAAAAAAAAAAAAAAAAAAAAAAAAAAAAAAAAAAAAAAAAAAAAAAAAAAAAAAAAAAAAAAAAAAAAAAAAAAAAAAAAAAAAAAAAAAAAAAAAAAAAAAAAAAAAAAAAAAAAAAAAAAAAAAAAAAAAAAAAAAAAAAAAAAAAAAAAAAAAAAAAAAAAAAAAAAAAAAAAAAAAAAAAAAAAAAAAAAAAAAAAAAAAAAAAAAAAAAAAAAAAAAAAAAAAAAAAAAAAAAAAAAAAAAAAAAAAAAAAAAAAAAAAAAAAAAAAAAAAAAAAAAAAAAAAAAAAAAAAAAAAAAAAAAAAAAAAAAAAAAAAAAAAAAAAAAAAAAAAAAAAAAAAAAAAAAAAAAAAAAAAAAAAAAAAAAAAAAAAAAAAAAAAAAAAAAAAAAAAAAAAAAAAAAAAAAAAAAAAAAAAAAAAAAAAAAAAAAAAAAAAAAAAAAAAAAAAAAAAAAAAAAAAAAAAAAAAAAAAAAAAAAAAAAAAAAAAAAAAAAAAAAAAAAAAAAAAAAAAAAAAAAAAAAAAAAAAAAAAAAAAAAAAAAAAAAAAAAAAAAAAAAAAAAAAAAAAAAAAAAAAAAAAAAAAAAAAAAAAAAAAAAAAAAAAAAAAAAAAAAAAAAAAAAAAAAAAAAAAAAAAAAAAAAAAAAAAAAAAAAAAAAAAAAAAAAAAAAAAAAAAAAAAAAAAAAAAAAAAAAAAAAAAAAAAAAAAAAAAAAAAAAAAAAAAAAAAAAAAAAAAAAAAAAAAAAAAAAAAAAAAAAAAAAAAAAAAAAAAAAAAAAAAAAAAAAAAAAAAAAAAAAAAAAAAAAAAAAAAAAAAAAAAAAAAAAAAAAAAAAAAAAAAAAAAAAAAAAAAAAAAAAAAAAAAAAAAAAAAAAAAAAAAAAAAAAAAAAAAAAAAAAAAAAAAAAAAAAAAAAAAAAAAAAAAAAAAAAAAAAAAAAAAAAAAAAAAAAAAAAAAAAAAAAAAAAAAAAAAAAAAAAAAAAAAAAAAAAAAAAAAAAAAAAAAAAAAAAAAAAAAAAAAAAAAAAAAAAAAAAAAAAAAAAAAAAAAAAAAAAAAAAAAAAAAAAAAAAAAAAAAAAAAAAAAAAAAAAAAAAAAAAAAAAAAAAAAAAAAAAAAAAAAAAAAAAAAAAAAAAAAAAAAAAAAAAAAAAAAAAAAAAAAAAAAAAAAAAAAAAAAAAAAAAAAAAAAAAAAAAAAAAAAAAAPZYQCeXTsO+JIHLfZyRZKORhervK+9mk1V5g/m5L90yDw3xHRkMOEozkRwCV/p8h5srzilVzELhvM7MZuepoTdRLTU=</c2pa:manifest></metadata>
  <defs>
    
    <linearGradient id="linear-gradient" x1="724.38" y1="543.96" x2="1229.68" y2="522.8" gradientUnits="userSpaceOnUse">
      <stop offset="0" stop-color="#2d4da1"></stop>
      <stop offset="1" stop-color="#6b3996"></stop>
    </linearGradient>
    <linearGradient id="linear-gradient-2" x1="724.9" y1="556.06" x2="1230.15" y2="534.9" xlink:href="#linear-gradient"></linearGradient>
    <linearGradient id="linear-gradient-3" x1="725" y1="558.49" x2="1230.27" y2="537.33" xlink:href="#linear-gradient"></linearGradient>
    <linearGradient id="linear-gradient-4" x1="725.06" y1="561.08" x2="1230.43" y2="539.91" xlink:href="#linear-gradient"></linearGradient>
    <linearGradient id="linear-gradient-5" x1="725.29" y1="565.2" x2="1230.55" y2="544.04" xlink:href="#linear-gradient"></linearGradient>
    <linearGradient id="linear-gradient-6" x1="725.4" y1="567.79" x2="1230.67" y2="546.63" xlink:href="#linear-gradient"></linearGradient>
    <linearGradient id="linear-gradient-7" x1="724.69" y1="553.04" x2="1230.11" y2="531.88" xlink:href="#linear-gradient"></linearGradient>
    <linearGradient id="linear-gradient-8" x1="724.47" y1="546.3" x2="1229.78" y2="525.14" xlink:href="#linear-gradient"></linearGradient>
    <linearGradient id="linear-gradient-9" x1="726.4" y1="592.15" x2="1231.69" y2="570.99" gradientTransform="translate(472.45 1629.56) rotate(-90)" xlink:href="#linear-gradient"></linearGradient>
    <linearGradient id="linear-gradient-10" x1="531.61" y1="539.08" x2="1286.04" y2="507.49" xlink:href="#linear-gradient"></linearGradient>
  </defs>
  <g>
    <path class="cls-11" d="M826.97,543.18c.08-1.09.14-2.19.14-3.31,0-23.49-19.04-42.53-42.53-42.53s-42.53,19.04-42.53,42.53,19.04,42.53,42.53,42.53c9.52,0,18.31-3.13,25.39-8.41l17.14,9.82-.14-40.64Z"></path>
    <path class="cls-3" d="M809.35,514.96v6.55c-5.12-4.99-12.88-12.08-23.18-12.68-.11-.02-.22-.02-.34-.03-.39-.03-.77-.04-1.17-.06-.39-.02-.78-.02-1.17-.02-.55,0-1.09.02-1.63.04-.54.02-1.08.06-1.6.11-.06,0-.12,0-.19.01-5.05.49-9.65,2.1-13.78,4.83-.18.12-.36.23-.54.36-.03.01-.07.04-.1.06-1.63,1.13-3.18,2.44-4.67,3.92-1.48,1.48-2.78,3.03-3.91,4.65-.02.03-.04.07-.06.1-3.42,4.94-5.2,10.55-5.36,16.83,0,.31-.01.63-.01.94,0,8.78,3.12,16.28,9.34,22.51,6.23,6.23,13.73,9.34,22.51,9.34s16.29-3.12,22.43-9.34c6.23-6.23,9.34-13.73,9.34-22.51,0-1.22-.06-2.41-.18-3.57h-5.91c.17,1.23.25,2.5.25,3.81,0,7.18-2.56,13.33-7.66,18.36-5.03,5.11-11.18,7.66-18.36,7.66s-13.34-2.55-18.44-7.66c-5.03-5.03-7.59-11.18-7.59-18.36s2.56-13.34,7.59-18.37c5.11-5.02,11.25-7.58,18.44-7.58,9.88,0,17.3,6.55,22.33,11.57.22.22.44.45.66.68h-8.05v6.15h17.15v-18.3h-6.15Z"></path>
    <circle class="cls-3" cx="783.46" cy="540.57" r="13.46"></circle>
  </g>
  <g>
    <g>
      <path class="cls-1" d="M878.87,519.76v35.67c0,5.13-1.92,9.51-5.66,13.24-3.74,3.63-8.01,5.45-13.03,5.45s-9.4-1.82-13.14-5.45c-3.73-3.73-5.55-8.11-5.55-13.24v-35.67h-8.22v34.71c0,7.9,2.56,14.52,7.58,19.76,5.13,5.23,11.53,7.9,19.33,7.9s14.2-2.67,19.22-7.9c5.13-5.24,7.69-11.86,7.69-19.76v-34.71h-8.22Z"></path>
      <path class="cls-5" d="M946.99,528.09c-5.98-6.3-13.24-9.5-21.79-9.82-8.86-.32-16.44,2.67-22.74,9.07-6.3,6.31-9.51,13.99-9.51,22.86s2.99,15.91,8.87,22.1c5.87,6.2,13.03,9.4,21.46,9.72,9.61.32,17.73-3.31,24.35-10.89v9.5h7.9v-30.54c.32-8.44-2.56-15.8-8.54-22ZM940.48,567.07c-4.7,4.91-10.36,7.26-17.09,6.94-6.2-.32-11.54-2.77-15.91-7.58-4.38-4.8-6.41-10.46-6.3-16.87.1-6.52,2.34-11.96,6.94-16.56,4.59-4.59,10.04-6.83,16.55-6.83s11.53,2.24,15.91,6.83c4.38,4.6,6.73,10.04,6.84,16.45.1,6.73-2.14,12.6-6.94,17.62Z"></path>
      <path class="cls-4" d="M1007.61,526.28c-5.13-5.24-11.54-7.91-19.23-7.91s-14.2,2.67-19.33,7.91c-5.12,5.23-7.69,11.74-7.69,19.65v34.7h8.23v-35.56c0-5.12,1.81-9.5,5.55-13.24,3.74-3.74,8.22-5.55,13.24-5.55s9.29,1.81,13.03,5.55,5.66,8.12,5.66,13.24v35.56h8.23v-34.7c0-7.91-2.57-14.42-7.69-19.65Z"></path>
      <path class="cls-6" d="M1110.49,518.3l-.34-.06-21.24,51.72-16.07-31.02h-8.54l20.34,41.69h8.44l24.66-59.08.75-1.79-8-1.46Z"></path>
      <path class="cls-10" d="M1169.12,528.09c-5.87-6.3-13.14-9.5-21.57-9.82-8.76-.32-16.34,2.77-22.64,9.18-6.3,6.3-9.51,13.99-9.51,22.85s2.89,15.92,8.76,22.11c5.87,6.2,13.14,9.4,21.57,9.61,8.76.32,16.34-2.77,22.64-9.07,6.41-6.41,9.61-13.99,9.61-22.75s-2.99-15.91-8.86-22.11ZM1162.93,567.07c-4.7,5.02-10.36,7.26-17.09,6.94-6.3-.21-11.53-2.67-15.91-7.47-4.38-4.81-6.41-10.47-6.3-16.88.1-6.51,2.34-11.96,6.94-16.55,4.59-4.59,10.04-6.94,16.55-6.83,6.19,0,11.43,2.24,15.81,6.83,4.38,4.59,6.72,10.04,6.94,16.45.1,6.73-2.14,12.49-6.94,17.51Z"></path>
      <g>
        <g>
          <path class="cls-8" d="M1043.39,527.24v-7.59h-14v-21.25h-8.22v64.61c0,12.6,7.36,18.9,22.19,18.91h.03v-6.73c-9.3,0-14-4.49-14-13.56v-34.39h14Z"></path>
          <path class="cls-7" d="M1050.54,519.76v46.89h8.01v-46.89h-8.01ZM1050.54,498.3v14.2h8.01v-14.2h-8.01Z"></path>
        </g>
        <rect class="cls-9" x="1047.64" y="570.92" width="6.72" height="15.28" transform="translate(1629.56 -472.45) rotate(90)"></rect>
      </g>
    </g>
    <polygon class="cls-2" points="1120.53 505.11 1105.42 516.03 1122.44 523.65 1120.53 505.11"></polygon>
  </g>
</svg>